<svg width="59" height="48" viewBox="0 0 59 48" fill="none" xmlns="http://www.w3.org/2000/svg">
<g clip-path="url(#clip0_220_466)">
<path d="M33.411 41.8328C33.0055 41.2649 32.4565 40.8494 31.7663 40.6939C31.1645 40.5583 30.5457 40.5814 29.9339 40.5861L22.1984 40.6457C21.5359 40.6509 20.9007 41.2248 20.9314 41.9127C20.962 42.5947 21.4882 43.1851 22.1984 43.1796C24.4643 43.1621 26.7303 43.1446 28.9963 43.1272C29.5305 43.1231 30.065 43.1134 30.5993 43.1152C30.7192 43.1156 30.8387 43.1219 30.9586 43.1232C30.9876 43.1236 31.0085 43.1233 31.0234 43.1227C31.0271 43.1238 31.0302 43.1249 31.035 43.1262C31.0975 43.1433 31.1617 43.1552 31.2246 43.1715C31.2026 43.1721 31.2654 43.2113 31.2969 43.2246C31.3013 43.2332 31.3105 43.2483 31.3259 43.2717C31.3475 43.3121 31.4112 43.4348 31.4138 43.4309C31.5096 43.6731 31.5887 43.9216 31.6504 44.1746C31.7976 44.7327 31.8299 44.8493 31.8511 45.3728C31.8779 46.0342 32.4147 46.6713 33.1181 46.6398C33.7815 46.61 34.4137 46.0821 34.385 45.3728C34.3366 44.1776 34.1268 42.8351 33.411 41.8328Z" fill="#E6E6E6"/>
<path d="M22.6531 44.6917C22.5078 43.8112 22.3653 42.9301 22.2172 42.0502C22.0669 41.1575 21.7599 40.34 21.0652 39.7541C20.8796 39.5975 20.6871 39.4514 20.4939 39.3057C20.4259 39.2545 20.358 39.2032 20.2909 39.1508C20.2869 39.1477 20.2843 39.1457 20.2808 39.143C20.2734 39.1367 20.2646 39.1291 20.2527 39.1191C19.9631 38.874 19.6834 38.6181 19.4169 38.346C19.1802 38.1044 18.9539 37.8524 18.7379 37.5902C18.6839 37.5247 18.6306 37.4586 18.578 37.3919C18.569 37.3805 18.5203 37.3175 18.4882 37.2764C18.4583 37.2353 18.4038 37.1611 18.3946 37.1481C18.3332 37.0612 18.2729 36.9735 18.2136 36.8851C17.8101 36.2805 17.4607 35.6415 17.1694 34.9755C17.1405 34.9095 17.1123 34.843 17.0848 34.7762C17.0774 34.7558 17.0679 34.7296 17.0552 34.6948C16.9965 34.5334 16.9379 34.3722 16.8843 34.2088C16.7703 33.862 16.6722 33.51 16.5902 33.1529C16.5497 32.9765 16.5131 32.7993 16.4807 32.6211C16.4639 32.5295 16.4483 32.4377 16.4337 32.3458C16.4313 32.3305 16.4171 32.2313 16.4087 32.1752C16.4025 32.1188 16.391 32.0191 16.3894 32.0037C16.3802 31.9109 16.3719 31.8181 16.3647 31.7252C16.3485 31.5162 16.3376 31.3068 16.3319 31.097C16.3221 30.7243 16.3288 30.3515 16.3519 29.9788C16.365 29.7694 16.3838 29.5606 16.4068 29.3521C16.4082 29.3393 16.4093 29.3291 16.4103 29.3199C16.4117 29.3106 16.4133 29.3 16.4152 29.2869C16.4323 29.1716 16.4502 29.0566 16.4703 28.9419C16.5463 28.5064 16.6451 28.0753 16.7664 27.6502C16.8238 27.4491 16.8861 27.2497 16.9535 27.0519C16.9835 26.9641 17.0144 26.8766 17.0463 26.7895C17.0442 26.7951 17.1399 26.5507 17.1412 26.5425C17.5209 25.6454 18.1419 24.8276 18.1427 23.8086C18.1433 23.1187 17.5596 22.4577 16.8758 22.4896C16.5349 22.5025 16.2123 22.6472 15.9759 22.8932C15.7396 23.1393 15.608 23.4674 15.6089 23.8086C15.6089 23.8241 15.6088 23.8373 15.6088 23.8502C15.6024 23.8716 15.5971 23.8896 15.5923 23.9054C15.5182 24.0663 15.4275 24.2192 15.3463 24.3761C15.1237 24.8055 14.9338 25.2491 14.7533 25.6991C14.4579 26.432 14.2318 27.1909 14.0779 27.966C13.7435 29.6641 13.7176 31.4087 14.0013 33.116C14.4925 36.1101 16.1125 38.9763 18.3645 40.9028C18.56 41.07 18.7602 41.2315 18.9623 41.3898C19.0459 41.4553 19.1302 41.5196 19.215 41.5835C19.255 41.6137 19.421 41.7445 19.348 41.6811C19.5049 41.8151 19.571 41.8825 19.6113 41.9812C19.6172 42.004 19.6251 42.0349 19.6359 42.0771C19.6643 42.1884 19.6913 42.2994 19.7138 42.4122C19.9098 43.3982 20.046 44.4006 20.2098 45.393C20.3223 46.0748 21.1617 46.5185 21.7682 46.3142C22.4742 46.0763 22.7737 45.4222 22.6531 44.6917Z" fill="#E6E6E6"/>
<path d="M33.5392 47.2489C33.0072 47.2502 32.4963 47.0405 32.1186 46.6657C31.741 46.2909 31.5274 45.7816 31.5248 45.2495V43.8043C30.0117 43.9737 24.8305 43.9344 23.3453 43.6958V45.1917C23.3413 45.7233 23.1273 46.2318 22.75 46.6064C22.3726 46.9809 21.8625 47.1911 21.3309 47.1911C20.7992 47.1911 20.2891 46.9809 19.9118 46.6064C19.5344 46.2318 19.3204 45.7233 19.3164 45.1917V42.2547C17.3049 41.1372 15.6279 39.5031 14.4587 37.5212C13.2895 35.5392 12.6703 33.2811 12.6651 30.98C12.6651 27.0343 14.4533 23.3536 17.5712 20.8815C19.5984 19.2688 22.0614 18.2989 24.6439 18.0964C24.9945 18.0689 25.3472 18.055 25.6922 18.055C26.9079 18.055 32.3926 18.2428 33.7687 18.6387L36.9065 15.5251C36.9527 15.4787 37.0116 15.4471 37.0757 15.4343C37.1399 15.4215 37.2064 15.4282 37.2668 15.4533C37.3277 15.4775 37.3798 15.5196 37.4163 15.5739C37.4528 15.6283 37.472 15.6924 37.4714 15.7579V16.253L38.0824 15.6478C38.1285 15.6014 38.1873 15.5697 38.2515 15.5569C38.3156 15.5441 38.3821 15.5507 38.4424 15.5759C38.5033 15.6001 38.5555 15.6422 38.5921 15.6966C38.6286 15.7509 38.6479 15.8151 38.6473 15.8806V21.4127C40.2218 22.8322 41.4219 24.6181 42.1411 26.6123C42.8604 28.6064 43.0766 30.7472 42.7706 32.8449C42.4647 34.9426 41.646 36.9325 40.3871 38.6381C39.1282 40.3437 37.468 41.7125 35.5536 42.6231V45.2495C35.551 45.7816 35.3375 46.2909 34.9598 46.6657C34.5822 47.0405 34.0713 47.2502 33.5392 47.2489ZM31.6832 43.6247V45.2495C31.6872 45.7391 31.8845 46.2073 32.2321 46.5522C32.5798 46.897 33.0496 47.0905 33.5392 47.0905C34.0289 47.0905 34.4987 46.897 34.8463 46.5522C35.194 46.2073 35.3913 45.7391 35.3953 45.2495V42.523L35.4405 42.5016C37.5885 41.4823 39.412 39.8876 40.7086 37.8946C42.3607 35.3514 43.0478 32.3007 42.6455 29.2948C42.2432 26.2888 40.778 23.5262 38.5153 21.507L38.4889 21.4833V15.8806C38.4895 15.8466 38.4796 15.8132 38.4606 15.7849C38.4416 15.7567 38.4144 15.7349 38.3827 15.7226C38.3512 15.7091 38.3163 15.7055 38.2826 15.7122C38.249 15.7189 38.2181 15.7356 38.1941 15.7601L37.3131 16.6327V15.7579C37.3136 15.7239 37.3038 15.6905 37.2848 15.6622C37.2658 15.634 37.2386 15.6122 37.2068 15.5999C37.1752 15.5864 37.1403 15.5828 37.1066 15.5896C37.0729 15.5963 37.042 15.613 37.018 15.6376L33.8129 18.8179L33.7674 18.8036C32.4881 18.4032 26.9171 18.2134 25.6922 18.2134C25.3513 18.2134 25.0028 18.2271 24.6564 18.2543C22.1052 18.4543 19.6721 19.4124 17.6696 21.0056C14.5898 23.4474 12.8235 27.083 12.8235 30.98C12.8287 33.2608 13.4446 35.4985 14.607 37.4608C15.7695 39.4231 17.4362 41.0384 19.434 42.1388L19.4748 42.1614V45.1917C19.4789 45.6813 19.6762 46.1494 20.0239 46.4942C20.3715 46.8389 20.8413 47.0323 21.3309 47.0323C21.8205 47.0323 22.2902 46.8389 22.6379 46.4942C22.9855 46.1494 23.1828 45.6813 23.1869 45.1917V43.5062L23.2807 43.5239C24.6154 43.775 30.2355 43.8146 31.5937 43.6364L31.6832 43.6247Z" fill="#3F3D56"/>
<path d="M22.8044 9.43206L14.0357 12.0673C13.7568 12.1514 13.5227 12.3428 13.3849 12.5995C13.247 12.8561 13.2167 13.157 13.3005 13.436C13.3844 13.715 13.5755 13.9493 13.832 14.0874C14.0885 14.2256 14.3893 14.2562 14.6684 14.1727L22.342 11.8661L22.5027 11.8178C22.5353 10.9895 22.76 10.18 23.1592 9.45344C23.1091 9.4309 23.0555 9.41698 23.0008 9.41226C22.9347 9.40586 22.868 9.41259 22.8044 9.43206Z" fill="#00C8FF"/>
<path d="M14.5167 14.7346C14.4003 14.7343 14.287 14.6974 14.1927 14.6292C14.0983 14.561 14.0279 14.4649 13.9911 14.3544L13.4428 12.6998C13.4199 12.6307 13.4108 12.5578 13.4161 12.4852C13.4214 12.4126 13.441 12.3417 13.4736 12.2767C13.5063 12.2116 13.5515 12.1537 13.6065 12.1061C13.6616 12.0585 13.7255 12.0222 13.7946 11.9993L20.9315 9.63411C21.0006 9.61121 21.0735 9.60214 21.1461 9.60742C21.2187 9.6127 21.2895 9.63223 21.3546 9.66489C21.4196 9.69755 21.4776 9.7427 21.5252 9.79777C21.5728 9.85283 21.6091 9.91674 21.632 9.98583L22.1803 11.6404C22.2259 11.7765 22.2168 11.925 22.1548 12.0545C22.0928 12.1839 21.9829 12.2842 21.8483 12.334C21.8417 12.3365 21.835 12.3388 21.8283 12.341L14.6916 14.7061C14.6352 14.7249 14.5762 14.7345 14.5167 14.7346Z" fill="#2F2E41"/>
<path d="M27.8824 6.49353C26.442 6.49409 25.0583 7.05511 24.0242 8.05785C22.9901 9.06059 22.3868 10.4264 22.342 11.8661C22.3404 11.9223 22.3396 11.9793 22.3396 12.0363C22.3396 13.1326 22.6647 14.2042 23.2737 15.1157C23.8828 16.0272 24.7484 16.7377 25.7612 17.1572C26.7741 17.5767 27.8885 17.6865 28.9637 17.4726C30.0389 17.2587 31.0266 16.7308 31.8017 15.9557C32.5769 15.1805 33.1048 14.1929 33.3187 13.1177C33.5325 12.0425 33.4228 10.928 33.0032 9.91518C32.5837 8.90237 31.8733 8.03671 30.9618 7.42766C30.0503 6.81861 28.9786 6.49353 27.8824 6.49353ZM27.8824 17.4207C26.4548 17.4192 25.0861 16.8515 24.0767 15.842C23.0672 14.8326 22.4995 13.4639 22.498 12.0363C22.498 11.9627 22.4995 11.8898 22.5027 11.8178C22.5456 10.763 22.8976 9.74418 23.5149 8.88789C24.1321 8.03159 24.9875 7.37563 25.9746 7.00158C26.9617 6.62753 28.037 6.55189 29.0668 6.78406C30.0965 7.01622 31.0353 7.54597 31.7664 8.30741C32.4975 9.06885 32.9886 10.0284 33.1787 11.0667C33.3689 12.1051 33.2496 13.1764 32.8357 14.1475C32.4218 15.1186 31.7317 15.9466 30.851 16.5285C29.9703 17.1105 28.938 17.4208 27.8824 17.4207Z" fill="#3F3D56"/>
<path d="M32.5542 12.0364C32.5542 13.2754 32.062 14.4637 31.1859 15.3398C30.3097 16.216 29.1214 16.7082 27.8824 16.7082C26.6434 16.7082 25.4551 16.216 24.579 15.3398C23.7028 14.4637 23.2106 13.2754 23.2106 12.0364C23.2106 11.8883 23.2177 11.7426 23.2312 11.5985C23.3438 10.4027 23.9126 9.29621 24.8195 8.50876C25.7265 7.72132 26.9018 7.31342 28.1016 7.36977C29.3013 7.42612 30.4333 7.94239 31.2624 8.81138C32.0916 9.68036 32.5542 10.8353 32.5542 12.0364Z" fill="#E6E6E6"/>
<path d="M29.2736 12.3468C29.1604 12.1979 29.0114 12.0799 28.8405 12.0039C28.6297 11.9151 28.412 11.8436 28.1896 11.7901V10.5184C28.5315 10.57 28.8521 10.7162 29.1152 10.9405L29.3734 10.3902C29.2249 10.2579 29.0545 10.1526 28.8698 10.079C28.665 9.99606 28.4501 9.94094 28.2308 9.91506V9.27051H27.633V9.92139C27.4021 9.94732 27.1794 10.0221 26.9797 10.1407C26.7993 10.2475 26.6474 10.3964 26.537 10.5746C26.4317 10.7486 26.3772 10.9485 26.3795 11.1519C26.3692 11.3722 26.433 11.5897 26.5608 11.7695C26.6784 11.9252 26.8337 12.0484 27.0121 12.1274C27.2263 12.2189 27.4477 12.2922 27.6741 12.3468V13.5654C27.2707 13.5349 26.8863 13.3816 26.5727 13.1259L26.3146 13.677C26.4899 13.822 26.6893 13.9351 26.9037 14.0112C27.1386 14.0952 27.384 14.1464 27.633 14.1632V14.8022H28.2308V14.1513C28.5628 14.115 28.8742 13.9723 29.1184 13.7443C29.2259 13.6412 29.3109 13.5169 29.3679 13.3792C29.4248 13.2415 29.4526 13.0935 29.4494 12.9446C29.4593 12.7313 29.3974 12.5208 29.2736 12.3468ZM27.6741 11.6555C27.5285 11.6113 27.3931 11.5387 27.2758 11.4417C27.2294 11.4004 27.1926 11.3492 27.1683 11.292C27.1439 11.2348 27.1325 11.1729 27.1349 11.1107C27.1306 10.9697 27.1824 10.8327 27.279 10.7298C27.3861 10.6219 27.5243 10.5502 27.6741 10.5248V11.6555ZM28.5649 13.3405C28.4639 13.4441 28.3324 13.5126 28.1896 13.5361V12.4877C28.3261 12.5243 28.4538 12.5881 28.5649 12.6754C28.6071 12.7114 28.6406 12.7564 28.6629 12.8071C28.6853 12.8578 28.6959 12.9129 28.694 12.9683C28.6995 13.1042 28.6534 13.2372 28.5649 13.3405Z" fill="#00C8FF"/>
<path d="M30.8632 32.3093C30.6105 31.9864 30.2779 31.7305 29.8964 31.5656C29.4259 31.3728 28.94 31.2177 28.4435 31.1018V28.3431C29.2067 28.4549 29.9224 28.7721 30.5097 29.2587L31.086 28.0648C30.7546 27.7779 30.3741 27.5495 29.9618 27.3898C29.5048 27.2099 29.0251 27.0904 28.5354 27.0342V25.636H27.2009V27.048C26.6856 27.1042 26.1885 27.2664 25.7427 27.5238C25.34 27.7554 25.0009 28.0784 24.7546 28.4651C24.5195 28.8424 24.3977 29.2762 24.4029 29.7173C24.3799 30.1953 24.5224 30.667 24.8077 31.0571C25.0702 31.3948 25.4169 31.6621 25.8151 31.8335C26.2932 32.0319 26.7875 32.1911 27.2928 32.3093V34.9529C26.3923 34.8869 25.5342 34.5542 24.8342 33.9996L24.258 35.1951C24.6494 35.5096 25.0945 35.7549 25.573 35.92C26.0974 36.1023 26.6453 36.2133 27.201 36.2498V37.636H28.5354V36.224C29.2766 36.1453 29.9718 35.8356 30.5168 35.3411C30.7569 35.1174 30.9465 34.8477 31.0737 34.549C31.2009 34.2504 31.2628 33.9293 31.2557 33.6062C31.2778 33.1434 31.1397 32.6868 30.8632 32.3093ZM27.2929 30.8098C26.9678 30.714 26.6656 30.5563 26.4037 30.346C26.3 30.2563 26.218 30.1454 26.1636 30.0212C26.1092 29.8971 26.0838 29.7628 26.0891 29.628C26.0795 29.322 26.1952 29.0249 26.4108 28.8017C26.6499 28.5677 26.9583 28.4121 27.2929 28.3569V30.8098ZM29.2813 34.4651C29.0558 34.6898 28.7622 34.8385 28.4435 34.8893V32.6151C28.7482 32.6945 29.0331 32.833 29.2813 33.0222C29.3754 33.1003 29.4502 33.198 29.5001 33.308C29.5499 33.418 29.5736 33.5376 29.5694 33.6577C29.5817 33.9525 29.4788 34.241 29.2813 34.4651Z" fill="#00C8FF"/>
<path d="M14.7713 21.4405C14.6489 21.4403 14.53 21.3997 14.433 21.325C14.336 21.2503 14.2663 21.1458 14.2348 21.0275L13.9363 19.8975C13.8989 19.7555 13.9194 19.6045 13.9933 19.4775C14.0671 19.3506 14.1883 19.2581 14.3302 19.2204L23.7483 16.7317C23.8904 16.6947 24.0414 16.7154 24.1683 16.7893C24.2952 16.8633 24.3876 16.9845 24.4254 17.1265L24.6782 18.0838L24.6309 18.0875C22.2154 18.2753 19.9043 19.151 17.971 20.6111L17.9573 20.6178L14.9119 21.4222C14.866 21.4343 14.8187 21.4405 14.7713 21.4405Z" fill="#2F2E41"/>
<path d="M13.2115 27.0217C12.1067 26.8585 11.0501 26.459 10.1137 25.8504C9.64977 25.5491 9.2203 25.1979 8.83298 24.8029C8.4507 24.413 8.08499 23.9698 7.89564 23.4506C7.71346 22.9701 7.72285 22.4381 7.92186 21.9644C8.11817 21.4936 8.49315 21.1198 8.9646 20.925C9.43887 20.7359 10.0119 20.7157 10.4735 20.9228C10.6934 21.0192 10.8837 21.1724 11.0249 21.3667C11.0905 21.4563 11.1391 21.5571 11.1683 21.6643C11.1953 21.7614 11.1978 21.8637 11.1754 21.9619C11.1483 22.0601 11.1006 22.1512 11.0354 22.2294C10.9702 22.3076 10.8891 22.3709 10.7974 22.4151C10.5957 22.5186 10.3771 22.5853 10.1519 22.612C9.92543 22.6429 9.6001 22.6709 9.41803 22.4892C9.38056 22.4532 9.35108 22.4097 9.33152 22.3616C9.31783 22.3248 9.31315 22.2852 9.31787 22.2462C9.31521 22.2634 9.32885 22.2088 9.32808 22.2109C9.3252 22.219 9.31273 22.2387 9.33045 22.2084C9.33599 22.1985 9.34216 22.1889 9.34891 22.1797C9.34289 22.1875 9.32968 22.2005 9.35328 22.1782C9.37278 22.1568 9.39785 22.1414 9.42567 22.1335C9.43663 22.1303 9.44775 22.1278 9.45874 22.1248C9.48667 22.1171 9.4309 22.1252 9.45948 22.1243C9.4705 22.1239 9.48166 22.1242 9.49265 22.1237C9.52068 22.1224 9.465 22.116 9.49186 22.1228C9.50229 22.1254 9.51263 22.128 9.5229 22.1312C9.54524 22.1383 9.50709 22.1148 9.52222 22.1324C9.53996 22.1529 9.5036 22.1124 9.52376 22.1323C9.53379 22.1421 9.54325 22.1526 9.55208 22.1635C9.58704 22.198 9.63419 22.2174 9.68332 22.2174C9.73246 22.2174 9.77961 22.198 9.81457 22.1635C9.84834 22.1281 9.86719 22.0811 9.86719 22.0322C9.86719 21.9834 9.84834 21.9364 9.81457 21.901C9.63155 21.6741 9.27003 21.7302 9.08488 21.9219C8.84876 22.1665 8.94226 22.5541 9.17194 22.7674C9.43196 23.009 9.80021 23.0258 10.1347 22.9853C10.4173 22.9582 10.6928 22.8804 10.9478 22.7555C11.2012 22.631 11.3994 22.4169 11.504 22.1546C11.5512 22.0147 11.5682 21.8663 11.5538 21.7193C11.5393 21.5723 11.4939 21.43 11.4203 21.3019C11.125 20.7468 10.5136 20.4621 9.90919 20.4128C9.59802 20.3885 9.28511 20.4261 8.98856 20.5234C8.692 20.6208 8.4177 20.776 8.18152 20.98C7.7263 21.3898 7.44599 21.9589 7.39855 22.5696C7.34579 23.2028 7.59144 23.8176 7.9496 24.3286C8.32454 24.8478 8.77198 25.3105 9.27824 25.7027C10.268 26.4928 11.4289 27.0404 12.6682 27.3014C12.8156 27.3319 12.9638 27.3579 13.1128 27.3796C13.1602 27.3911 13.2102 27.3841 13.2526 27.36C13.295 27.3359 13.3267 27.2966 13.3411 27.25C13.3538 27.2025 13.3474 27.152 13.3231 27.1093C13.2989 27.0665 13.2587 27.0351 13.2115 27.0217Z" fill="#3F3D56"/>
<path d="M30.8997 18.9549C29.2811 18.932 27.6675 18.9731 26.059 19.0781C25.5092 19.114 25.0336 19.3083 25.0336 19.6349C25.0336 19.908 25.5055 20.2279 26.059 20.1917C27.6667 20.0867 29.2802 20.0457 30.8997 20.0685C32.22 20.0871 32.2192 18.9735 30.8997 18.9549Z" fill="#CCCCCC"/>
<path d="M28.5073 20.0134C28.3323 20.0134 24.223 20.0068 24.223 19.4392C24.223 18.8716 28.3323 18.8651 28.5073 18.8651C28.6822 18.8651 32.7915 18.8716 32.7915 19.4392C32.7915 20.0068 28.6822 20.0134 28.5073 20.0134ZM24.3837 19.4392C24.4962 19.6113 26.0067 19.855 28.5073 19.855C31.0078 19.855 32.5183 19.6113 32.6308 19.4392C32.5184 19.2672 31.0078 19.0235 28.5073 19.0235C26.0067 19.0235 24.4962 19.2672 24.3837 19.4392Z" fill="#3F3D56"/>
<path d="M41.545 34.9353C42.4547 34.91 43.5868 34.8785 44.459 34.2413C44.7187 34.0438 44.9321 33.7919 45.0842 33.5033C45.2363 33.2146 45.3235 32.8962 45.3395 32.5703C45.3573 32.0672 45.1755 31.6279 44.8276 31.334C44.3721 30.949 43.7069 30.8587 42.99 31.0694L43.7327 25.6416L43.1875 25.5669L42.3144 31.948L42.7697 31.7391C43.2975 31.4969 44.0221 31.3737 44.4724 31.7542C44.583 31.8537 44.6691 31.9773 44.7241 32.1155C44.7791 32.2537 44.8015 32.4027 44.7896 32.551C44.7762 32.7935 44.7108 33.0303 44.5977 33.2453C44.4847 33.4603 44.3266 33.6484 44.1343 33.7969C43.4556 34.2927 42.5532 34.3566 41.5297 34.3852L41.545 34.9353Z" fill="#3F3D56"/>
<path d="M40.0375 26.1097H37.0735V26.6601H40.0375V26.1097Z" fill="#3F3D56"/>
<path d="M16.1125 23.9716C15.9806 23.9712 15.8531 23.9238 15.7529 23.8379C15.6527 23.7521 15.5864 23.6333 15.5658 23.503L15.3849 22.3484C15.3623 22.2032 15.3982 22.055 15.4848 21.9362C15.5714 21.8175 15.7015 21.7379 15.8467 21.715L25.4699 20.2072C25.6151 20.1846 25.7633 20.2205 25.8821 20.3071C26.0008 20.3937 26.0804 20.5238 26.1033 20.669L26.2842 21.8236C26.3068 21.9688 26.2709 22.1171 26.1843 22.2358C26.0977 22.3546 25.9676 22.4341 25.8224 22.457L16.1992 23.9648C16.1705 23.9693 16.1415 23.9716 16.1125 23.9716Z" fill="#2F2E41"/>
<path d="M12.1299 10.4406C14.3602 10.4406 16.1682 8.63263 16.1682 6.40233C16.1682 4.17203 14.3602 2.36401 12.1299 2.36401C9.89963 2.36401 8.09161 4.17203 8.09161 6.40233C8.09161 8.63263 9.89963 10.4406 12.1299 10.4406Z" fill="#00C8FF"/>
<path d="M14.4164 7.44713C14.5454 7.40198 14.6633 7.32973 14.7622 7.23522C14.8275 7.16784 14.8774 7.08698 14.9082 6.99831C14.9391 6.90963 14.9502 6.81529 14.9407 6.72188C14.9352 6.65531 14.9144 6.5909 14.8799 6.5337C14.8454 6.47651 14.7981 6.42806 14.7418 6.39216C14.5956 6.30228 14.4025 6.30567 14.2075 6.39606L14.185 4.8197L14.0267 4.82196L14.0531 6.67513L14.1737 6.59607C14.3135 6.50455 14.5143 6.43818 14.6588 6.52706C14.6945 6.55059 14.7244 6.58204 14.746 6.61898C14.7676 6.65592 14.7804 6.69734 14.7834 6.74002C14.79 6.80961 14.7816 6.87981 14.7587 6.94586C14.7358 7.01191 14.6989 7.07224 14.6506 7.12276C14.479 7.29309 14.2249 7.35017 13.9349 7.40237L13.9629 7.55821C14.1171 7.5348 14.2689 7.49762 14.4164 7.44713Z" fill="#2F2E41"/>
<path d="M15.8157 4.70908L14.9724 4.83679L14.9961 4.99335L15.8394 4.86564L15.8157 4.70908Z" fill="#2F2E41"/>
<path d="M13.1538 5.11215L12.3105 5.23987L12.3342 5.39643L13.1775 5.26871L13.1538 5.11215Z" fill="#2F2E41"/>
<path d="M14.7986 23.9009C14.6534 23.9006 14.5117 23.8561 14.3924 23.7733C14.2731 23.6905 14.1818 23.5733 14.1308 23.4373L11.3465 15.9808C11.0061 15.0663 11.0425 14.0541 11.4475 13.1664C11.8525 12.2787 12.5932 11.5878 13.5069 11.2455L15.7709 10.4001C15.8584 10.3672 15.9516 10.3519 16.0451 10.3552C16.1385 10.3584 16.2304 10.3801 16.3155 10.419C16.4003 10.4569 16.4768 10.5114 16.5403 10.5791C16.6039 10.6469 16.6533 10.7267 16.6857 10.8138L21.8434 20.552C21.8769 20.6398 21.8926 20.7334 21.8898 20.8273C21.887 20.9212 21.8657 21.0137 21.827 21.0993C21.7883 21.185 21.733 21.2621 21.6644 21.3264C21.5958 21.3906 21.5152 21.4406 21.4271 21.4735L15.0477 23.8557C14.968 23.8855 14.8837 23.9009 14.7986 23.9009Z" fill="#2F2E41"/>
<path d="M15.084 10.6566L20.2015 17.5L16.7387 10.7284C16.7101 10.6494 16.6662 10.5768 16.6095 10.5147C16.5529 10.4527 16.4846 10.4024 16.4085 10.3668C16.3324 10.3311 16.25 10.3108 16.166 10.307C16.0821 10.3033 15.9982 10.316 15.9192 10.3447L15.084 10.6566Z" fill="#E6E6E6"/>
<path d="M23.1869 15.8538L14.0496 15.2652C13.9056 15.2559 13.7648 15.2184 13.6353 15.1547C13.5058 15.091 13.3901 15.0024 13.2948 14.894C13.1995 14.7856 13.1265 14.6595 13.08 14.5229C13.0334 14.3863 13.0142 14.2419 13.0235 14.0978C13.0328 13.9538 13.0703 13.813 13.134 13.6835C13.1977 13.554 13.2863 13.4383 13.3947 13.343C13.5031 13.2477 13.6292 13.1747 13.7658 13.1282C13.9024 13.0816 14.0469 13.0625 14.1909 13.0717L23.3282 13.6603C23.3956 13.6646 23.4616 13.6822 23.5222 13.712C23.5829 13.7418 23.6371 13.7833 23.6817 13.8341C23.7263 13.8848 23.7605 13.9439 23.7823 14.0079C23.8041 14.0719 23.8131 14.1395 23.8087 14.2069L23.7336 15.3732C23.7248 15.5095 23.6623 15.6366 23.5598 15.7267C23.4573 15.8168 23.3231 15.8625 23.1869 15.8538Z" fill="#00C8FF"/>
<path d="M20.7453 16.2311C20.7332 16.2311 20.7211 16.2307 20.709 16.23L13.2059 15.7467C13.1333 15.742 13.0623 15.7231 12.9969 15.6909C12.9316 15.6588 12.8733 15.6142 12.8252 15.5595C12.7772 15.5048 12.7403 15.4412 12.7169 15.3723C12.6934 15.3034 12.6837 15.2306 12.6884 15.1579L12.8167 13.1658C12.8214 13.0932 12.8403 13.0222 12.8725 12.9569C12.9046 12.8916 12.9493 12.8332 13.0039 12.7852C13.0586 12.7371 13.1222 12.7003 13.1911 12.6768C13.26 12.6533 13.3329 12.6437 13.4055 12.6484L20.9085 13.1316C21.0552 13.1412 21.192 13.2086 21.289 13.319C21.386 13.4293 21.4353 13.5737 21.426 13.7203L21.2977 15.7125C21.2907 15.8192 21.2529 15.9217 21.1891 16.0075C21.1252 16.0933 21.038 16.1589 20.9378 16.1963C20.8762 16.2194 20.811 16.2312 20.7453 16.2311Z" fill="#2F2E41"/>
<path d="M12.0836 3.71687C12.6149 3.25996 13.3444 3.6687 13.9537 3.59715C14.5366 3.52869 14.9968 3.00585 15.1144 2.45039C15.2516 1.80236 14.9152 1.15313 14.4194 0.749095C13.8764 0.306576 13.1563 0.17954 12.4739 0.261409C11.6917 0.35524 10.9764 0.719825 10.3346 1.16081C9.71507 1.57328 9.14534 2.05605 8.63679 2.59949C8.18141 3.10243 7.79557 3.70193 7.67237 4.3787C7.5604 4.99376 7.6459 5.67532 8.00949 6.19635C8.20229 6.46341 8.46067 6.67626 8.75968 6.8144C9.07146 6.96749 9.40403 7.07694 9.70609 7.25003C10.1628 7.51176 10.6067 8.05444 10.4636 8.61918C10.4329 8.74255 10.3724 8.85648 10.2873 8.95095C10.1851 9.0644 10.0008 8.91448 10.1033 8.80074C10.2832 8.60095 10.2762 8.33451 10.1802 8.09599C10.0662 7.82721 9.86425 7.60514 9.60748 7.46615C9.2913 7.28538 8.94223 7.1738 8.61817 7.00914C8.308 6.85873 8.03875 6.6356 7.83336 6.35875C7.4455 5.81976 7.32949 5.11829 7.41745 4.46937C7.51264 3.76715 7.87344 3.12903 8.32573 2.59429C8.81794 2.01235 9.42256 1.51974 10.0402 1.07721C10.703 0.602359 11.4352 0.200909 12.2455 0.0557113C12.9478 -0.0701527 13.7091 0.00733713 14.3233 0.390094C14.8966 0.747373 15.3363 1.36196 15.38 2.04871C15.3957 2.36118 15.3278 2.67218 15.1834 2.94972C15.039 3.22726 14.8233 3.46131 14.5584 3.62777C14.2865 3.79043 13.9705 3.86364 13.6549 3.83708C13.3174 3.81548 12.9797 3.71215 12.6401 3.74084C12.4864 3.75016 12.34 3.80933 12.2229 3.90937C12.1069 4.0092 11.9685 3.81588 12.0836 3.71687Z" fill="#2F2E41"/>
</g>
<defs>
<clipPath id="clip0_220_466">
<rect width="58.6486" height="47.2859" rx="23.643" fill="white"/>
</clipPath>
</defs>
</svg>
